<svg xmlns="http://www.w3.org/2000/svg" width="30" height="30" viewBox="0 0 30 30">
    <g fill="none" fill-rule="evenodd">
        <g>
            <g>
                <g>
                    <path fill="#FFF" fill-opacity="0" d="M0 0H30V30H0z" transform="translate(-173.000000, -285.000000) translate(105.000000, 285.000000) translate(68.000000, 0.000000)"/>
                    <path fill="#AAA" fill-rule="nonzero" d="M28.255 6.724H6.438c-.208 0-.346.07-.553.07L4.92 3.62C4.849 3.276 4.504 3 4.09 3H1.33C.845 3 .5 3.345.5 3.828c0 .482.345.827.829.827h2.14l3.797 13.173.414 1.448c.207.758.898 1.241 1.588 1.241h15.535c.76 0 1.45-.483 1.588-1.241l3.038-10.483c.276-.896-.277-1.793-1.174-2.069zm-5.04 15.31c-1.381 0-2.486 1.104-2.486 2.483 0 1.38 1.105 2.483 2.486 2.483 1.38 0 2.485-1.103 2.485-2.483 0-1.38-1.173-2.483-2.485-2.483zm-12.22 0c1.311 0 2.485 1.104 2.485 2.483 0 1.38-1.105 2.483-2.486 2.483-1.38 0-2.485-1.103-2.485-2.483 0-1.38 1.105-2.483 2.485-2.483zM12 9c.552 0 1 .448 1 1v7c0 .552-.448 1-1 1s-1-.448-1-1v-7c0-.552.448-1 1-1zm5 0c.552 0 1 .448 1 1v7c0 .552-.448 1-1 1s-1-.448-1-1v-7c0-.552.448-1 1-1zm5 0c.552 0 1 .448 1 1v7c0 .552-.448 1-1 1s-1-.448-1-1v-7c0-.552.448-1 1-1z" transform="translate(-173.000000, -285.000000) translate(105.000000, 285.000000) translate(68.000000, 0.000000)"/>
                </g>
            </g>
        </g>
    </g>
</svg>
