<svg xmlns="http://www.w3.org/2000/svg" width="16" height="16" viewBox="0 0 16 16">
    <g fill="none" fill-rule="evenodd">
        <g>
            <g>
                <g>
                    <g>
                        <path fill="#FFF" fill-opacity="0" d="M0 0H16V16H0z" transform="translate(-242 -682) translate(242 256) translate(0 408) translate(0 18)"/>
                        <g fill="#D91C84" fill-rule="nonzero">
                            <path d="M14.689 1.978c-.089-.022-.156-.022-.245-.022H3.111c-.089 0-.2.022-.289.044L2.333.311C2.29.111 2.111 0 1.911 0H.444C.2 0 0 .2 0 .444 0 .69.2.89.444.89h1.134l2 6.978.222.777c.111.378.467.645.844.645h8.223c.4 0 .755-.267.866-.645L15.29 3.09c.155-.489-.133-.978-.6-1.111zm-1.8 6.4H4.667V8.31l-.223-.755-1.333-4.734h11.333L12.89 8.378zM12 10.067c-.711 0-1.311.577-1.311 1.31 0 .734.578 1.312 1.311 1.312.711 0 1.311-.578 1.311-1.311 0-.734-.578-1.311-1.311-1.311zm0 1.733c-.222 0-.422-.178-.422-.422 0-.245.178-.422.422-.422.222 0 .422.177.422.422 0 .244-.178.422-.422.422zM5.533 10.067c-.71 0-1.31.577-1.31 1.31 0 .734.577 1.312 1.31 1.312.711 0 1.311-.578 1.311-1.311 0-.734-.577-1.311-1.31-1.311zm0 1.733c-.222 0-.422-.178-.422-.422 0-.245.178-.422.422-.422.245 0 .423.177.423.422 0 .244-.178.422-.423.422z" transform="translate(-242 -682) translate(242 256) translate(0 408) translate(0 18) translate(.333 1.667)"/>
                        </g>
                    </g>
                </g>
            </g>
        </g>
    </g>
</svg>
