<svg xmlns="http://www.w3.org/2000/svg" width="16" height="16" viewBox="0 0 16 16">
    <g fill="none" fill-rule="evenodd">
        <g>
            <g>
                <g>
                    <g>
                        <path fill="#FFF" fill-opacity=".01" d="M0 0H16V16H0z" transform="translate(-242 -578) translate(242 256) translate(0 304) translate(0 18)"/>
                        <g fill="#D91C84" fill-rule="nonzero">
                            <path d="M14.556 3.822c.4-.11.666-.444.666-.866V.933c0-.489-.4-.889-.889-.889H1c-.489 0-.889.4-.889.89v2.022c0 .4.267.755.667.866.444.111.755.49.755.956 0 .444-.31.844-.755.955-.4.111-.667.445-.667.867v2.022c0 .49.4.89.889.89h13.333c.49 0 .89-.4.89-.89V6.6c0-.4-.267-.756-.667-.867-.445-.11-.756-.489-.756-.955 0-.445.311-.845.756-.956zm-.223 2.756V8.6H11.89v-.644c0-.223-.178-.4-.4-.4-.222 0-.378.2-.378.422v.644H1V6.6c.844-.2 1.422-.956 1.422-1.8 0-.867-.578-1.6-1.422-1.8V.978h10.111v.644c0 .222.178.4.4.4.222 0 .4-.178.4-.4V.978h2.445V3c-.845.2-1.423.956-1.423 1.8 0 .844.578 1.578 1.4 1.778z" transform="translate(-242 -578) translate(242 256) translate(0 304) translate(0 18) translate(.333 3.333)"/>
                            <path d="M11.511 5.178c-.222 0-.4.178-.4.4v.8c0 .222.178.4.4.4.222 0 .4-.178.4-.4v-.8c-.022-.222-.178-.4-.4-.4zM11.511 2.8c-.222 0-.4.178-.4.4V4c0 .111.045.2.111.267.067.066.178.11.267.11v-.11.11c.111 0 .2-.044.267-.11.066-.067.11-.178.11-.267v-.8c.023-.244-.133-.4-.355-.4zM7.422 4.289H6.356l-.29-1.022c-.022-.045-.044-.067-.088-.09-.067-.021-.156.023-.178.09l-.333 1.022H4.4c-.044 0-.089.022-.133.067-.045.066-.023.155.044.177l.867.623-.334 1.022c-.022.044 0 .089.023.133.022.022.044.045.089.045h.022c.022 0 .066 0 .089-.023l.866-.622.845.622c.044.023.089.045.133.023.045 0 .067-.023.089-.067.022-.022.022-.067.022-.111L6.69 5.156l.867-.623c.044-.022.044-.066.044-.11-.044-.067-.111-.134-.178-.134z" transform="translate(-242 -578) translate(242 256) translate(0 304) translate(0 18) translate(.333 3.333)"/>
                        </g>
                    </g>
                </g>
            </g>
        </g>
    </g>
</svg>
