<svg xmlns="http://www.w3.org/2000/svg" viewBox="0 0 22.99 14.4"><defs><style>.cls-1{fill:#333;}</style></defs><title>web_ic_coupon</title><g id="레이어_2" data-name="레이어 2"><g id="레이어_1-2" data-name="레이어 1"><path class="cls-1" d="M22,5.75a1.35,1.35,0,0,0,1-1.32V1.35A1.36,1.36,0,0,0,21.64,0H1.35A1.36,1.36,0,0,0,0,1.35V4.43A1.38,1.38,0,0,0,1,5.75,1.48,1.48,0,0,1,2.16,7.2,1.49,1.49,0,0,1,1,8.65,1.35,1.35,0,0,0,0,10v3.08A1.36,1.36,0,0,0,1.35,14.4H21.64A1.36,1.36,0,0,0,23,13.05V10a1.37,1.37,0,0,0-1-1.32A1.47,1.47,0,0,1,20.83,7.2,1.5,1.5,0,0,1,22,5.75Zm-.33,4.19V13H17.92V12a.6.6,0,1,0-1.19,0v1H1.35V10A2.81,2.81,0,0,0,3.52,7.23,2.78,2.78,0,0,0,1.35,4.5V1.42H16.73v1a.61.61,0,0,0,.61.61A.61.61,0,0,0,18,2.4v-1h3.72V4.5a2.8,2.8,0,0,0,0,5.44Z"/><path class="cls-1" d="M17.34,7.81a.61.61,0,0,0-.61.61V9.64a.61.61,0,0,0,.61.6.6.6,0,0,0,.61-.6V8.42A.63.63,0,0,0,17.34,7.81Z"/><path class="cls-1" d="M17.31,6.59a.59.59,0,0,0,.41-.17.61.61,0,0,0,.16-.4V4.8a.52.52,0,0,0-.54-.61.61.61,0,0,0-.61.61V6a.55.55,0,0,0,.17.4A.65.65,0,0,0,17.31,6.59Z"/><path class="cls-1" d="M11.12,6.46H9.5L9.06,4.9a.24.24,0,0,0-.13-.13.23.23,0,0,0-.28.13l-.5,1.56H6.52a.29.29,0,0,0-.2.1.18.18,0,0,0,.07.27l1.32,1L7.2,9.33a.24.24,0,0,0,0,.2.17.17,0,0,0,.14.07h0a.22.22,0,0,0,.14,0l1.32-1,1.28,1c.07,0,.14.07.21,0a.13.13,0,0,0,.13-.1s0-.1,0-.17L10,7.78l1.32-1c.06,0,.06-.1.06-.17A.38.38,0,0,0,11.12,6.46Z"/></g></g></svg>