<svg xmlns="http://www.w3.org/2000/svg" viewBox="0 0 20.22 22.99"><defs><style>.cls-1{fill:#333;}</style></defs><title>web_ic_order</title><g id="레이어_2" data-name="레이어 2"><g id="레이어_1-2" data-name="레이어 1"><g id="구매내역"><g id="ic_order-list" data-name="ic order-list"><path id="形状" class="cls-1" d="M18.75,1.15H16.13V.72A.72.72,0,0,0,15.41,0H12.86a.72.72,0,0,0-.72.72v.43H8.05V.72A.72.72,0,0,0,7.33,0H4.78a.72.72,0,0,0-.72.72v.43H1.44A1.45,1.45,0,0,0,0,2.59v19A1.45,1.45,0,0,0,1.44,23H18.79a1.44,1.44,0,0,0,1.43-1.44v-19A1.49,1.49,0,0,0,18.75,1.15Zm-5.17.29h1.11V2.55H13.58Zm-8.08,0H6.61V2.55H5.5ZM18.75,21.55H1.44v-19H4.06v.68A.72.72,0,0,0,4.78,4H7.33a.73.73,0,0,0,.72-.72V2.59h4.09v.68a.72.72,0,0,0,.72.72h2.55a.73.73,0,0,0,.72-.72V2.59h2.62Z"/><path id="路径" class="cls-1" d="M16.06,6.82H8A.72.72,0,0,0,8,8.26H16a.72.72,0,0,0,.72-.72A.7.7,0,0,0,16.06,6.82Z"/><path class="cls-1" d="M16.06,10H8a.72.72,0,0,0,0,1.44H16a.72.72,0,0,0,.72-.72A.7.7,0,0,0,16.06,10Z"/><path class="cls-1" d="M16.06,13.22H8a.72.72,0,0,0,0,1.44H16a.72.72,0,0,0,.72-.72A.69.69,0,0,0,16.06,13.22Z"/><path class="cls-1" d="M16.06,16.42H8a.72.72,0,0,0,0,1.43H16a.72.72,0,0,0,.72-.72A.69.69,0,0,0,16.06,16.42Z"/><path class="cls-1" d="M5.17,6.82h-1a.72.72,0,0,0,0,1.44h1a.72.72,0,0,0,0-1.44Z"/><path class="cls-1" d="M5.17,10h-1a.72.72,0,0,0,0,1.44h1a.72.72,0,0,0,0-1.44Z"/><path class="cls-1" d="M5.17,13.22h-1a.72.72,0,1,0,0,1.44h1a.72.72,0,1,0,0-1.44Z"/><path class="cls-1" d="M5.17,16.42h-1a.72.72,0,1,0,0,1.43h1a.72.72,0,1,0,0-1.43Z"/></g></g></g></g></svg>