<svg xmlns="http://www.w3.org/2000/svg" width="30" height="30" viewBox="0 0 30 30">
    <g fill="none" fill-rule="evenodd">
        <g fill="#AAA" fill-rule="nonzero">
            <g>
                <g>
                    <g>
                        <path d="M27.13.051c.459-.005.901.196 1.226.557.326.361.506.853.502 1.364v19.204c.004.511-.177 1.003-.502 1.364-.325.36-.767.562-1.227.557h-8.542l-3.214 5.608c-.18.338-.51.543-.864.537l-.117-.005c-.309-.036-.587-.231-.748-.532l-3.214-5.608H1.894c-.46.005-.901-.196-1.227-.557-.325-.361-.505-.853-.5-1.364V1.972C.161 1.46.341.969.666.608.992.247 1.435.046 1.894.051zM16.067 15.416H6.386c-.563.016-1.012.527-1.012 1.153 0 .625.45 1.136 1.012 1.152h9.682c.277.006.543-.114.739-.332.196-.218.303-.515.298-.822.004-.307-.104-.603-.299-.82-.196-.217-.462-.336-.738-.33zm6.567-4.994H6.385c-.562.015-1.01.527-1.01 1.152 0 .625.448 1.137 1.01 1.152h16.25c.277.006.544-.114.74-.331.195-.217.303-.514.298-.821.005-.308-.103-.604-.299-.821-.195-.217-.462-.337-.739-.331zm0-4.994H6.385c-.562.016-1.01.527-1.01 1.153 0 .625.448 1.136 1.01 1.152h16.25c.563-.016 1.012-.527 1.012-1.152 0-.626-.45-1.137-1.012-1.153z" transform="translate(-173.000000, -285.000000) translate(89.000000, 285.000000) translate(84.000000, 0.000000) translate(0.500000, 0.000000)"/>
                    </g>
                </g>
            </g>
        </g>
    </g>
</svg>
