<svg xmlns="http://www.w3.org/2000/svg" viewBox="0 0 22.99 21.04"><defs><style>.cls-1{fill:#333;}</style></defs><title>web_ic_review</title><g id="레이어_2" data-name="레이어 2"><g id="레이어_1-2" data-name="레이어 1"><g id="이용후기"><g id="ic_review" data-name="ic review"><path id="形状" class="cls-1" d="M21.64,0H1.35A1.36,1.36,0,0,0,0,1.35V15a1.36,1.36,0,0,0,1.35,1.35H4.28l.07,3.37A1.34,1.34,0,0,0,5.73,21a1.22,1.22,0,0,0,.88-.37l4.65-4.31H21.64A1.36,1.36,0,0,0,23,15V1.35A1.36,1.36,0,0,0,21.64,0Zm0,15H10.75l-5,4.72L5.63,15H1.35V1.35H21.67V15Z"/><circle id="椭圆形" class="cls-1" cx="11.49" cy="8.16" r="1.02"/><circle class="cls-1" cx="15.78" cy="8.16" r="1.02"/><circle class="cls-1" cx="7.21" cy="8.16" r="1.02"/></g></g></g></g></svg>