<?xml version="1.0" encoding="utf-8"?>
<!-- Generator: Adobe Illustrator 23.0.4, SVG Export Plug-In . SVG Version: 6.00 Build 0)  -->
<svg version="1.1" id="레이어_1" xmlns="http://www.w3.org/2000/svg" xmlns:xlink="http://www.w3.org/1999/xlink" x="0px"
	 y="0px" viewBox="0 0 48 48" style="enable-background:new 0 0 48 48;" xml:space="preserve">
<style type="text/css">
	.st0{fill-rule:evenodd;clip-rule:evenodd;fill:#FFFFFF;fill-opacity:0;}
	.st1{fill:#333333;}
</style>
<title>마이페이지_ic_profile</title>
<desc>Created with Sketch.</desc>
<g id="마이페이지_ic_profile">
	<rect id="bg" class="st0" width="48" height="48"/>
	<g id="ic_profile" transform="translate(5.000000, 1.000000)">
		<path id="形状" class="st1" d="M18.7,23.6c-6.3,0-11.4-5.1-11.4-11.4v-0.5c0-6.3,5.1-11.4,11.4-11.4s11.4,5.1,11.4,11.4v0.5
			C30.1,18.5,25,23.6,18.7,23.6z M18.7,3.1c-4.8,0-8.6,3.9-8.6,8.6v0.5c0,4.8,3.9,8.6,8.6,8.6s8.6-3.9,8.6-8.6v-0.5
			C27.4,6.9,23.5,3.1,18.7,3.1z"/>
		<path class="st1" d="M35.8,45.8H1.6c-0.7,0-1.4-0.6-1.4-1.4c0-10.4,8.3-18.9,18.5-18.9S37.2,34,37.2,44.4
			C37.2,45.2,36.6,45.8,35.8,45.8z M3.1,43.1h31.3c-0.7-8.2-7.4-14.8-15.7-14.8S3.7,34.8,3.1,43.1z"/>
	</g>
</g>
</svg>
