<svg xmlns="http://www.w3.org/2000/svg" width="16" height="16" viewBox="0 0 16 16">
    <g fill="none" fill-rule="evenodd">
        <g>
            <g>
                <g>
                    <g>
                        <path fill="#FFF" fill-opacity="0" d="M0 0H16V16H0z" transform="translate(-291 -734) translate(242 256) translate(0 460) translate(49 18)"/>
                        <g fill="#D91C84" fill-rule="nonzero">
                            <path d="M7.667 13.641c-.09 0-.203-.022-.27-.09l-2.052-1.623C3.81 10.62 2.526 9.515 1.579 8.41.52 7.148.001 5.908.001 4.6c-.023-1.173.406-2.3 1.172-3.202C1.963.496 3.09 0 4.263 0h.022c1.691 0 2.773.992 3.382 1.849C8.276.992 9.336 0 11.05 0h.023c1.172 0 2.3.519 3.089 1.398.766.902 1.172 2.03 1.172 3.202 0 1.308-.518 2.548-1.578 3.81-.902 1.083-2.187 2.165-3.653 3.428l-.09.09H9.99L7.938 13.55c-.09.045-.18.09-.27.09zM4.262.88c-.924 0-1.803.406-2.412 1.105C1.24 2.706.903 3.63.903 4.577c0 1.105.428 2.12 1.353 3.225.879 1.037 2.164 2.142 3.63 3.404l1.759 1.398 1.848-1.465c1.444-1.24 2.706-2.3 3.563-3.315.924-1.105 1.353-2.12 1.353-3.224.022-.97-.316-1.894-.947-2.616-.609-.699-1.51-1.105-2.435-1.105-1.33 0-2.187.812-2.66 1.489-.114.18-.226.338-.34.54-.067.158-.225.249-.405.249-.158 0-.316-.09-.406-.248-.09-.18-.203-.361-.338-.541C6.472 1.69 5.615.879 4.262.879c.023 0 0 0 0 0z" transform="translate(-291 -734) translate(242 256) translate(0 460) translate(49 18) translate(.333 1.333)"/>
                        </g>
                    </g>
                </g>
            </g>
        </g>
    </g>
</svg>
