<svg xmlns="http://www.w3.org/2000/svg" width="20" height="20" viewBox="0 0 20 20">
    <g fill="none" fill-rule="evenodd">
        <g>
            <g>
                <g>
                    <g>
                        <path d="M0 0H19.187V20H0z" transform="translate(-821 -311) translate(597 291) translate(224 20)"/>
                        <path fill="#333" fill-rule="nonzero" d="M3.598 6.99c0 2.232 1.604 4.3 2.1 4.846l.16.174c.602.643 2.302 2.43 2.415 2.518v.003h.433l-.052-.056c-.887-.965-3.353-4.456-3.353-7.93 0-2.226 1.557-4.035 3.17-4.748l.049-.02c.207-.1.856-.1 1.037-.11-3.565 0-5.96 2.172-5.96 5.322zm5.965-5.323c3.565 0 5.959 2.172 5.959 5.322 0 2.234-1.606 4.302-2.1 4.848l-.292.313c-.686.729-2.178 2.296-2.284 2.378v.003h-.433l.053-.056c.886-.965 3.352-4.456 3.352-7.93 0-2.226-1.556-4.035-3.17-4.748l-.048-.02c-.208-.1-.856-.1-1.037-.11zm0 0l.026.02c.468.338 2.577 1.358 2.577 4.416 0 3.546-1.875 7.451-2.162 8.4l-.008.028h-.85l-.02-.06c-.353-1.05-2.069-4.925-2.069-8.368 0-3.145 2.086-4.133 2.506-4.436z" transform="translate(-821 -311) translate(597 291) translate(224 20)"/>
                        <path fill="#D91C84" d="M8.927 16.41h1.375c.295 0 .533.249.533.556v.797c0 .307-.238.556-.533.556H8.927c-.294 0-.533-.25-.533-.556v-.797c0-.307.239-.556.533-.556z" transform="translate(-821 -311) translate(597 291) translate(224 20)"/>
                        <path fill="#D8D8D8" d="M9.563 16.154L8.607 15 10.519 15z" transform="translate(-821 -311) translate(597 291) translate(224 20)"/>
                    </g>
                </g>
            </g>
        </g>
    </g>
</svg>
