<svg xmlns="http://www.w3.org/2000/svg" viewBox="0 0 150.01 49.82"><defs><style>.cls-1{fill:#004097;}.cls-2{fill:#fff;}</style></defs><title>자산 10</title><g id="레이어_2" data-name="레이어 2"><g id="레이어_1-2" data-name="레이어 1"><path class="cls-1" d="M131.69,30.1C158.29,16.5,155,3.4,127.89.7,98.69-2.2,56,4.1,26.29,16.1l-4.1,1.8c-31,13.8-28,28.5-.4,31.2,30.2,2.9,76.1-3,106.1-17Z"/><path class="cls-2" d="M126,32.8s-5.1.4-5.2-3.7V21.2s-.6-4.4,5.1-4.4c0,0,3.7-.1,4.7,2.1,0,0,.5.6.4,3h-4V20.7a1,1,0,0,0-1-1s-1.1,0-1.1.9v8.1a1.11,1.11,0,0,0,1.2,1.1,1.05,1.05,0,0,0,1-1.2V26.2H126V24h5.1v4.7a3.44,3.44,0,0,1-.4,1.6,3.19,3.19,0,0,1-.6.7A5.92,5.92,0,0,1,126,32.8Z"/><polygon class="cls-2" points="115.49 17.4 111.49 17.4 111.79 26.5 111.69 26.5 107.59 17.4 102.79 17.4 102.79 32.3 106.79 32.3 106.49 23.2 106.69 23.2 110.79 32.3 115.49 32.3 115.49 17.4"/><path class="cls-2" d="M91,17.3h-4.3V28.5s-.4,4.3,5.6,4.3c0,0,5.2.1,5.2-4.1V17.3h-4.2V28.6a1.07,1.07,0,0,1-1.1,1.2A1.1,1.1,0,0,1,91,28.6Z"/><path class="cls-2" d="M81.79,21.9V20s.3-3.1-4.6-3.2c0,0-3.9-.3-5,1.8a3.65,3.65,0,0,0-.4,2.1v1.2a4.35,4.35,0,0,0,.6,2.2,4.59,4.59,0,0,0,1.4,1.2l3.1,1.7s1.2.7,1,1.8a1.2,1.2,0,0,1-1.2,1.1,1,1,0,0,1-1-1.1V27.5h-4.2v1.9s-.1,3.5,5.3,3.5c0,0,5.2.1,5.4-3.6V27.7a3.9,3.9,0,0,0-1.8-3.5,11.18,11.18,0,0,0-1.7-.9,17.49,17.49,0,0,1-2.5-1.4s-.8-.8-.3-1.6a1,1,0,0,1,1-.6s1.1.1,1.1,1V22h3.8Z"/><polygon class="cls-2" points="50.59 17.4 50.29 32.3 54.19 32.3 54.19 21.1 54.49 21.1 56.59 32.3 60.69 32.3 62.69 21.1 62.99 21.1 63.09 32.3 66.99 32.3 66.59 17.4 60.09 17.4 58.69 25.6 58.39 25.6 57.19 17.4 50.59 17.4"/><polygon class="cls-2" points="46.09 32.3 43.49 17.4 36.79 17.4 34.29 32.3 38.49 32.3 39.99 20.7 40.29 20.7 41.89 32.3 46.09 32.3"/><path class="cls-2" d="M30.09,21.9V20s.3-3.1-4.6-3.2c0,0-3.9-.3-5,1.8a3.65,3.65,0,0,0-.4,2.1v1.2a4.35,4.35,0,0,0,.6,2.2,4.59,4.59,0,0,0,1.4,1.2l3.1,1.7s1.2.7,1,1.8A1.2,1.2,0,0,1,25,29.9a1,1,0,0,1-1-1.1V27.5h-4.2v1.9s-.1,3.5,5.3,3.5c0,0,5.2.1,5.4-3.6V27.7a3.9,3.9,0,0,0-1.8-3.5,11.18,11.18,0,0,0-1.7-.9,17.49,17.49,0,0,1-2.5-1.4s-.8-.8-.3-1.6a1,1,0,0,1,1-.6s1.1.1,1.1,1V22h3.8Z"/></g></g></svg>