<svg xmlns="http://www.w3.org/2000/svg" viewBox="0 0 150 150"><defs><style>.cls-1{fill:#e73d44;}.cls-2{fill:#fff;}</style></defs><title>자산 1</title><g id="레이어_2" data-name="레이어 2"><g id="레이어_1-2" data-name="레이어 1"><path class="cls-1" d="M150,75A75,75,0,1,1,75,0,75,75,0,0,1,150,75Z"/><path class="cls-2" d="M36.4,57.3a11.53,11.53,0,0,0-7.7-1.4c4.9-5.2,7.6-10.9,7.6-16.7a9.15,9.15,0,0,0-.1-1.6c-.3-3.6-1.9-6.3-4.5-7.2s-7.2-.5-14.7,7.1l-4.5,5c-1.2,1.5-5.9,8.6-6.8,16A92.89,92.89,0,0,0,8.4,94.8c.4,1.3,1.6,4.4,4.5,5.6,3.1,1.3,6-.3,8.6-1.6l.7-.3,2.7-1.2,2.6-1.1,3.1-1.4A21.12,21.12,0,0,0,37,91.3a18.48,18.48,0,0,0,5.8-8.9,33.79,33.79,0,0,0,1.1-6,28.85,28.85,0,0,0-.3-8.1C42.2,61.8,38.9,58.7,36.4,57.3ZM12.5,66.7c0,.1.1,1.7.1,1.7A.81.81,0,0,0,14,69c2.8-2.3,7-4.5,10.4-3.3,2.7.9,4.5,3.7,5.4,8.2,1.9,9.5-4.5,14-8.6,15.9h0L16,92.3a1.06,1.06,0,0,1-.6,0,1.58,1.58,0,0,1-.6-.9A110.47,110.47,0,0,1,11.4,52a6.89,6.89,0,0,1,1.3-3.1l4.4-4.6.5-.5c2.4-2.3,4.6-3.4,5.8-2.9,1,.4,1.2,2,1.3,3.3.2,6.8-3.6,13.7-11.5,21.2C13.1,65.3,12.5,65.8,12.5,66.7Z"/><path class="cls-2" d="M95.3,17.7c-1.5-5-3.8-6-4.5-6.3a39.58,39.58,0,0,0-19-1.3A36.79,36.79,0,0,0,48.8,24a34.27,34.27,0,0,0-6.2,26.8c1.7,9.7,6.6,17.5,14.2,22.6,8.9,6,20.7,7.8,33.3,5.2A40.88,40.88,0,0,0,108.5,70a7.63,7.63,0,0,0,2.5-5.9,22.4,22.4,0,0,0-.9-5.5c-.3-1-.7-1.3-1.4-1.3-.5,0-1.1.6-1.2.7-3.6,4.1-9,7-15.8,8.3-17.4,3.4-30.8-4.7-34.1-20.7C56.2,38.7,57.4,32.1,61,27s9.5-8.7,16.7-9.7a29.67,29.67,0,0,1,15.9,2C93.6,19.2,95.7,19.8,95.3,17.7Z"/></g></g></svg>