<svg xmlns="http://www.w3.org/2000/svg" width="24" height="24" viewBox="0 0 24 24">
    <g fill="none" fill-rule="evenodd">
        <g fill-rule="nonzero">
            <g>
                <g>
                    <g>
                        <path fill="#FFF" d="M0 0H24V24H0z" opacity=".01" transform="translate(-30.000000, -257.000000) translate(0.000000, 130.000000) translate(20.000000, 117.000000) translate(10.000000, 10.000000)"/>
                        <path fill="#666" d="M18.26 5.418h-2.61v-.81c0-.324-.282-.608-.603-.608s-.603.284-.603.608v.81H9.222v-.81c0-.324-.281-.608-.602-.608-.322 0-.603.284-.603.608v.81H5.406C4.643 5.418 4 6.066 4 6.835v11.747C4 19.352 4.643 20 5.406 20h12.855c.763 0 1.406-.648 1.406-1.418V6.835c0-.77-.643-1.417-1.406-1.417zM5.407 6.633h2.611v1.215c0 .324.281.608.603.608.321 0 .602-.284.602-.608V6.633h5.222v1.215c0 .324.282.608.603.608s.603-.284.603-.608V6.633h2.61c.121 0 .202.08.202.202v3.687c-.08-.041-.121-.041-.201-.041H5.406c-.08 0-.12 0-.2.04V6.836c0-.121.08-.202.2-.202zm12.855 12.152H5.406c-.12 0-.2-.081-.2-.203v-6.926c.08.04.12.04.2.04h12.855c.08 0 .12 0 .2-.04v6.926c0 .122-.08.203-.2.203z" transform="translate(-30.000000, -257.000000) translate(0.000000, 130.000000) translate(20.000000, 117.000000) translate(10.000000, 10.000000)"/>
                    </g>
                </g>
            </g>
        </g>
    </g>
</svg>
