<svg xmlns="http://www.w3.org/2000/svg" width="20" height="20" viewBox="0 0 20 20">
    <g fill="none" fill-rule="evenodd">
        <g fill="#D91C84">
            <g>
                <g>
                    <g>
                        <g transform="translate(-1102.000000, -848.000000) translate(277.000000, 673.000000) translate(0.000000, 157.000000) translate(808.000000, 8.000000) translate(17.000000, 10.000000)">
                            <g>
                                <path d="M0 10.238c0 .31.241.56.563.56h3.485v-1.12H.563c-.311 0-.563.26-.563.56zm0-8.095c0 .31.256.56.552.56h6.194v-1.12H.552c-.305 0-.552.26-.552.56zm6.517 8.655h5.121c.41 0 .743-.33.743-.74v.361c0-.41-.332-.741-.743-.741h-5.12V8.095H5.396v4.286h1.12v-1.583zM3.165 5.63H.735c-.406 0-.735.33-.735.741V6.01c0 .409.327.74.734.74h2.431v1.583h1.12V4.048h-1.12V5.63zm9.216.56c0-.309-.256-.56-.552-.56H5.635v1.12h6.194c.305 0 .552-.26.552-.56zM9.216 4.286V2.703h2.43c.406 0 .735-.33.735-.741v.362c0-.41-.327-.741-.734-.741H9.216V0h-1.12v4.286h1.12z" transform="translate(3.809524, 3.809524)"/>
                            </g>
                            <circle cx="17.262" cy="2.738" r="1.071"/>
                        </g>
                    </g>
                </g>
            </g>
        </g>
    </g>
</svg>
