<svg xmlns="http://www.w3.org/2000/svg" width="24" height="24" viewBox="0 0 24 24">
    <g fill="none" fill-rule="evenodd">
        <g fill-rule="nonzero">
            <g>
                <g>
                    <g>
                        <path fill="#FFF" d="M0 0H24V24H0z" opacity=".01" transform="translate(-30.000000, -311.000000) translate(0.000000, 130.000000) translate(20.000000, 171.000000) translate(10.000000, 10.000000)"/>
                        <path fill="#666" d="M14.508 12.917c1.191 0 2.334.473 3.177 1.315.78.78 1.244 1.817 1.308 2.922l.005.123.002.128v1.56c0 .697-.524 1.278-1.227 1.36l-.07.006-.074.002H6.371c-.7 0-1.28-.524-1.362-1.225l-.007-.07L5 18.964v-1.56c0-1.19.473-2.33 1.315-3.172.78-.78 1.82-1.244 2.926-1.308l.123-.005.128-.002h5.016zm0 1.179H9.5l-.11.001c-.842.026-1.643.372-2.24.968-.595.594-.94 1.392-.968 2.23l-.002.11v1.573c.006.088.073.16.157.174l.033.003h11.272c.087-.006.158-.073.173-.158l.003-.033v-1.55l-.002-.11c-.025-.842-.372-1.643-.968-2.24-.595-.594-1.393-.939-2.232-.967l-.11-.001zm-2.675-10.43c1.466 0 2.82.782 3.553 2.05.733 1.268.733 2.83 0 4.097-.733 1.268-2.087 2.05-3.553 2.05-2.265 0-4.102-1.835-4.102-4.098s1.837-4.098 4.102-4.098zm0 1.18c-1.613 0-2.92 1.306-2.92 2.919 0 1.612 1.307 2.92 2.92 2.92 1.044 0 2.008-.557 2.53-1.46.522-.904.522-2.017 0-2.92-.522-.904-1.486-1.46-2.53-1.46z" transform="translate(-30.000000, -311.000000) translate(0.000000, 130.000000) translate(20.000000, 171.000000) translate(10.000000, 10.000000)"/>
                    </g>
                </g>
            </g>
        </g>
    </g>
</svg>
