<svg xmlns="http://www.w3.org/2000/svg" width="30" height="30" viewBox="0 0 30 30">
    <g fill="none" fill-rule="evenodd">
        <g fill-rule="nonzero">
            <g>
                <g>
                    <path fill="#333" d="M23.56 16.594c.104 0 .19.086.19.19v1.427c0 .104-.086.19-.19.19H9.17l3.431 4.351c.097.124.01.31-.15.31h-1.54c-.234 0-.455-.108-.597-.29l-3.9-4.946c-.392-.5-.038-1.232.597-1.232H23.56zm-4.47-9.51c.233 0 .451.106.596.29l3.9 4.945c.392.5.038 1.232-.6 1.232H6.44c-.104 0-.19-.086-.19-.19v-1.427c0-.105.086-.19.19-.19h14.39L17.4 7.392c-.098-.126-.01-.309.149-.309z" transform="translate(-173.000000, -200.000000) translate(0.000000, 130.000000) translate(173.000000, 70.000000)"/>
                </g>
            </g>
        </g>
    </g>
</svg>
