<svg xmlns="http://www.w3.org/2000/svg" viewBox="0 0 149.97 136.32"><defs><style>.cls-1{fill:#009a8e;}.cls-2{fill:#ec1551;}</style></defs><title>자산 11</title><g id="레이어_2" data-name="레이어 2"><g id="레이어_1-2" data-name="레이어 1"><path class="cls-1" d="M98.17,80.8a24.3,24.3,0,0,0-1.7-6c-2.6-5.7-6.3-10.5-11.8-13.7a26.45,26.45,0,0,0-27.4.2,23.42,23.42,0,0,0-9,9.7,36.94,36.94,0,0,0-1.7,4.2c-2.2,7.1-2.1,16.6,1.9,23.1a11.67,11.67,0,0,0,5.5,4.8,8.28,8.28,0,0,0,7.2-.5c2.7-1.7,3.2-5,2.7-8-.6-3.8-1.1-7.5.3-11.2a9.62,9.62,0,0,1,2-3.2,6.41,6.41,0,0,1,1.9-1.3,8.55,8.55,0,0,1,4.7-.8,8.7,8.7,0,0,1,6.3,5.2,20.88,20.88,0,0,1,1.7,8.3c.6,12.3-2.4,25.1-5.5,37-.3,1.2-.7,2.4-1,3.7-.3.9-.7,2.1-.1,3a2.1,2.1,0,0,0,1.1.8c1.8.7,3.3-.4,4.5-1.6,7.2-7.3,11.9-16.7,15.1-26.3a84.85,84.85,0,0,0,2.9-11c.8-5.2,1.3-11,.4-16.4"/><path class="cls-1" d="M150,23.7a3.05,3.05,0,0,0-3.4-3c-1.8.1-3.5,1-5.1,1.6-31.8,12.1-67.7,14.4-101.3,9.6-5.7-.8-11.6-2-17.3-2.9-3.6-.6-7.2-1.4-10.8-1.7-3.1-.2-7-.3-9.5,1.8C-.73,32-.53,37.4,1.37,41c2.3,4.3,6.2,7.5,10.3,10s8.7,4.9,13.5,4.6c12.8-.8,25.6-2.1,38.4-3.7,21.7-2.8,44.5-5.5,64.9-13.9a84.08,84.08,0,0,0,19-10.6c1-.9,2.5-2.2,2.5-3.7"/><path class="cls-2" d="M58.67,12.8a12.5,12.5,0,0,0,25,0,6.3,6.3,0,0,0-.7-3c-1.1-2.3-2.3-3.4-2.2-6.1C81,0,76.17,0,73.67,0a19.07,19.07,0,0,0-8.2,1.6A12.23,12.23,0,0,0,60.57,6a13.41,13.41,0,0,0-2,6.5.37.37,0,0,1,.1.3"/></g></g></svg>