<svg xmlns="http://www.w3.org/2000/svg" xmlns:xlink="http://www.w3.org/1999/xlink" viewBox="0 0 161.04 159.16"><defs><style>.cls-1{fill:none;}.cls-2{clip-path:url(#clip-path);}.cls-3{fill:url(#radial-gradient);}.cls-4{clip-path:url(#clip-path-2);}.cls-5{fill:url(#radial-gradient-2);}</style><clipPath id="clip-path"><path class="cls-1" d="M77,1.14a77.6,77.6,0,1,0,3.59-.08c-1.19,0-2.39,0-3.59.08"/></clipPath><radialGradient id="radial-gradient" cx="-150.98" cy="-244.52" r="7.71" gradientTransform="matrix(9.55, 0, 0, -9.55, 1530, -2281.95)" gradientUnits="userSpaceOnUse"><stop offset="0" stop-color="#fff"/><stop offset="1" stop-color="#c7984a"/></radialGradient><clipPath id="clip-path-2"><path class="cls-1" d="M62.74,145.31c-8.65-.85-19-3.57-28.06-11.38-8.33-7.23-13.5-17.1-16-25.78-2.57-8.88-3.62-19.25.6-18.44,1.28.23,3.56,6,6,10.11,2.52,4.31,4.57,6.66,6.49,8.13.89.66,3.82-6,8.14-9.69,2.51-2.08,5.26-2.8,5.69,3.41.57,7.57-.82,16.58,1.4,16.58s6.74-1.57,17-2.47c3.82-.3,6,.46,2.36,5.61a38.94,38.94,0,0,1-10.08,10.38c8.65,8.14,19.14,7.18,19.34,10.67.1,2-3.81,3.07-9,3.07a35.68,35.68,0,0,1-3.93-.2M92.06,72.06a12.54,12.54,0,0,1-9.61-8.93,25.51,25.51,0,0,1-.26-9.84c1.12-8.57,3.41-12.64,6-19.28,3.54-8.94-5.08-14.17-3.67-17.45,1.92-4.48,8.14,1.21,15,1.61,5.94.32,9.46,0,14.07.64,6.11.84,13.45,2.9,16.72,6.76,3,3.47-1.6,7.72-7.08,5.07-4-2-9.07-.77-6.07,3.43,3.51,4,5.27,4.09,8.88,5,10,2.64,10.22,12.25,3.47,17.21-7.72,5.64-15.56,3.32-18.69-7.75-1.57-5.54-5.46-8.36-9.47-6.76s-1.63,8.81,1.44,15.56c5.2,13.36-5.37,14.76-9.44,14.76-.62,0-1.1,0-1.34,0m-5.73,75.75c-.07-1.75,2.53-2.21,2.53-2.21,23.24-4.6,16.46-19.82,8.21-27.64-3.46-3.25-35.81-31.18-35.81-31.18C30.38,60.19,32.84,39.44,32.84,39.44,34.34,13.9,56.69,7.55,73.61,9c2,.16,3.07,1.34,2.72,3-.37,1.82-3,1.94-3,1.94-5.41.3-10.18.91-13.84,3.34C45.83,26.47,49.86,42.09,68,59.44c2.32,2.18,4.72,4.5,7.22,6.85,0,0,3.67,3.2,10.94,10.11,14,12.89,21.62,19.82,21.62,19.82,24.65,20.5,16.2,39.3,6.78,45.82-7.16,5-15.12,7.26-25.6,7.82a.9.9,0,0,1-.25,0,2.3,2.3,0,0,1-2.41-2.08M76.93.09A78.44,78.44,0,1,0,80.54,0c-1.2,0-2.4,0-3.61.09"/></clipPath><radialGradient id="radial-gradient-2" cx="-164.76" cy="-227.63" r="7.71" gradientTransform="matrix(21.36, 0, 0, -21.36, 3611.34, -4804.75)" gradientUnits="userSpaceOnUse"><stop offset="0" stop-color="#20addb"/><stop offset="0.22" stop-color="#1489c2"/><stop offset="0.25" stop-color="#1181bc"/><stop offset="0.35" stop-color="#0a6faf"/><stop offset="0.45" stop-color="#0664a7"/><stop offset="0.57" stop-color="#0561a4"/><stop offset="1" stop-color="#0561a4"/></radialGradient></defs><title>자산 8</title><g id="레이어_2" data-name="레이어 2"><g id="레이어_1-2" data-name="레이어 1"><g class="cls-2"><rect class="cls-3" x="1.04" y="1.06" width="158.89" height="157"/></g><g class="cls-4"><rect class="cls-5" width="161.04" height="159.16"/></g></g></g></svg>