<svg xmlns="http://www.w3.org/2000/svg" viewBox="0 0 150 150.1"><defs><style>.cls-1{fill:#e50012;}.cls-2{fill:#fff;}</style></defs><title>자산 9</title><g id="레이어_2" data-name="레이어 2"><g id="레이어_1-2" data-name="레이어 1"><path class="cls-1" d="M105.85,137.35a43.7,43.7,0,0,1-61.7,0L12.75,106a43.82,43.82,0,0,1,0-61.8l31.4-31.4a43.7,43.7,0,0,1,61.7,0l31.4,31.4a43.82,43.82,0,0,1,0,61.8Z"/><path class="cls-2" d="M56.35,121.15a4.6,4.6,0,0,1-3.4-7.7,4.82,4.82,0,0,1,3.2-1.5,4.66,4.66,0,0,1,4.8,4.4,4.6,4.6,0,0,1-4.4,4.8h-.2"/><path class="cls-2" d="M73.25,35.45a8.44,8.44,0,0,0-6.2,2.4c-3.6,3.5-5.4,10.8-5.3,20.5.2,12,3,35.5,12.5,47.6a21.56,21.56,0,0,0,4.9,4.7,10.87,10.87,0,0,0,6.4,2.2,22.86,22.86,0,0,0,2.5-.2c5.4-1.3,12.2-7.3,17.2-15.3a4.29,4.29,0,0,1,3.5-2,4,4,0,0,1,4,3.2,3.74,3.74,0,0,1-.5,3.1c-6.4,10.1-14.8,17.2-22.5,19h-.2a19.55,19.55,0,0,1-15.1-3.1,28,28,0,0,1-6.9-6.5c-13.3-17-14.2-49-14.2-52.6-.1-8.5,1.1-20,7.7-26.6a16.51,16.51,0,0,1,12.1-4.8H74a16.67,16.67,0,0,1,12.1,4.8c6.6,6.6,7.9,18.1,7.7,26.6-.1,8.8-1.8,26-10.9,41.4a4,4,0,0,1-3.6,2,3.94,3.94,0,0,1-2.1-.6,4.12,4.12,0,0,1-1.4-5.7c6.4-10.8,9.5-22.6,9.8-37.3.2-9.7-1.7-17-5.2-20.5a8.44,8.44,0,0,0-6.2-2.4h-.9Z"/></g></g></svg>