<svg xmlns="http://www.w3.org/2000/svg" viewBox="0 0 149.9 29.9"><defs><style>.cls-1{fill:#221e1f;}</style></defs><title>자산 2</title><g id="레이어_2" data-name="레이어 2"><g id="레이어_1-2" data-name="레이어 1"><path class="cls-1" d="M8.1,0A8.13,8.13,0,0,0,0,8.1H0V29.8H2.7V8.2A5.38,5.38,0,0,1,8.1,2.8H141.8a5.38,5.38,0,0,1,5.4,5.4V29.9h2.7V8.2A8.13,8.13,0,0,0,141.8.1H8.1Z"/><path class="cls-1" d="M24.9,24.1c0,.2-.1.3-.4.3h-2a.27.27,0,0,1-.3-.3V18.6a.37.37,0,0,0-.4-.4H16.5a.37.37,0,0,0-.4.4v5.5a.27.27,0,0,1-.3.3H13.7a.27.27,0,0,1-.3-.3V10.5a.27.27,0,0,1,.3-.3h2.1a.27.27,0,0,1,.3.3v5.3c0,.3.1.4.4.4h5.3c.3,0,.4-.1.4-.4V10.5a.27.27,0,0,1,.3-.3h2c.2,0,.4.1.4.3Z"/><path class="cls-1" d="M29.8,24.6a2.24,2.24,0,0,1-2.3-2.2V13.9c0-.3.1-.4.3-.4h1.9c.2,0,.3.1.3.4v8.2c0,.2.1.3.4.3H34c.2,0,.4-.1.4-.3V13.9c0-.3.1-.4.3-.4h1.9c.2,0,.3.1.3.4V26.3a2.92,2.92,0,0,1-.2.9l-1.2,2.1a.55.55,0,0,1-.5.3h-.3a.27.27,0,0,1-.3-.3V23.8a.27.27,0,0,0-.3-.3l-3.7,1A1.27,1.27,0,0,1,29.8,24.6Z"/><path class="cls-1" d="M41.9,24.6a2.22,2.22,0,0,1-2.2-2.2V14c0-.3.1-.4.3-.4h2c.2,0,.3.1.3.4v8.2c0,.2.1.3.4.3h3.5c.2,0,.4-.1.4-.3V14c0-.3.1-.4.3-.4h1.9c.2,0,.3.1.3.4V24.2a.27.27,0,0,1-.3.3H46.9a.27.27,0,0,1-.3-.3v-.3c0-.3-.2-.3-.4-.3l-3.7,1Z"/><path class="cls-1" d="M61.2,15.7v8.5a.27.27,0,0,1-.3.3H59a.27.27,0,0,1-.3-.3V16a.37.37,0,0,0-.4-.4H54.8c-.3,0-.4.1-.4.4v8.2a.27.27,0,0,1-.3.3h-2a.27.27,0,0,1-.3-.3V14c0-.3.1-.4.3-.4h2c.2,0,.3.1.3.4v.3c0,.2.1.3.4.2l3.7-1c.2,0,.4-.1.6-.1A2.3,2.3,0,0,1,61.2,15.7Z"/><path class="cls-1" d="M63.4,22.4V17.5a2.38,2.38,0,0,1,1.4-2.3L66.9,14a2.3,2.3,0,0,1,1.4-.4H70c.3,0,.4-.1.4-.3v-4c0-.2.1-.4.3-.4h2c.2,0,.3.2.3.4V24.2a.27.27,0,0,1-.3.3h-2a.27.27,0,0,1-.3-.3v-.3c0-.3-.1-.3-.4-.3l-3.7,1a1.27,1.27,0,0,1-.6.1A2.56,2.56,0,0,1,63.4,22.4Zm7-.3V16c0-.3-.1-.4-.4-.4H66.4c-.3,0-.4.1-.4.4v6.1c0,.2.1.3.4.3H70C70.2,22.4,70.4,22.3,70.4,22.1Z"/><path class="cls-1" d="M77.4,24.6a2.22,2.22,0,0,1-2.2-2.2V17.5a2.38,2.38,0,0,1,1.4-2.3L78.7,14a2.2,2.2,0,0,1,1.3-.4h4.4c.2,0,.3.1.3.4V24.2a.27.27,0,0,1-.3.3h-2a.27.27,0,0,1-.3-.3v-.3c0-.3-.1-.3-.4-.3l-3.7,1Zm4.7-2.5V16c0-.3-.1-.4-.4-.4H78.1c-.3,0-.4.1-.4.4v6.1c0,.2.1.3.4.3h3.6C81.9,22.4,82.1,22.3,82.1,22.1Z"/><path class="cls-1" d="M89.9,10.8a.27.27,0,0,1-.3.3H87.7c-.3,0-.3-.1-.3-.3V9.2c0-.2.1-.4.3-.4h1.9c.2,0,.3.2.3.4Zm0,13.3a.27.27,0,0,1-.3.3H87.7c-.3,0-.3-.1-.3-.3V14c0-.3.1-.4.3-.4h1.9c.2,0,.3.1.3.4Z"/><path class="cls-1" d="M95.3,21.7V14.3a2.85,2.85,0,0,1,1.4-2.5L99,10.5a2.2,2.2,0,0,1,1.3-.4h4.8a.27.27,0,0,1,.3.3v1.4a.27.27,0,0,1-.3.3H98.4c-.2,0-.3.1-.3.4v9.3c0,.3.1.4.3.4h6.9a.27.27,0,0,1,.3.3.55.55,0,0,1-.3.5l-1.7.9a2.23,2.23,0,0,1-1.4.3H98A2.35,2.35,0,0,1,95.3,21.7Z"/><path class="cls-1" d="M109.5,24.6a2.22,2.22,0,0,1-2.2-2.2V17.5a2.38,2.38,0,0,1,1.4-2.3l2.1-1.2a2.2,2.2,0,0,1,1.3-.4h4.4c.2,0,.3.1.3.4V24.2a.27.27,0,0,1-.3.3h-2a.27.27,0,0,1-.3-.3v-.3c0-.3-.1-.3-.4-.3l-3.7,1Zm4.7-2.5V16c0-.3-.1-.4-.4-.4h-3.6c-.3,0-.4.1-.4.4v6.1c0,.2.1.3.4.3h3.6C114,22.4,114.2,22.3,114.2,22.1Z"/><path class="cls-1" d="M126.5,15.3a.27.27,0,0,1-.3.3h-3.8c-.3,0-.3.1-.3.4v8.2a.32.32,0,0,1-.3.3h-2a.27.27,0,0,1-.3-.3V14c0-.3.1-.4.3-.4h2c.2,0,.3.1.3.4v.3a.27.27,0,0,0,.3.3h.2l1.1-.7a2.77,2.77,0,0,1,1.3-.3h1.1a.27.27,0,0,1,.3.3v1.4Z"/><path class="cls-1" d="M126.9,22.4V17.5a2.38,2.38,0,0,1,1.4-2.3l2.1-1.2a2.3,2.3,0,0,1,1.4-.4h1.8c.3,0,.4-.1.4-.3v-4c0-.2.1-.4.3-.4h2c.2,0,.3.2.3.4V24.2a.27.27,0,0,1-.3.3h-2a.27.27,0,0,1-.3-.3v-.3c0-.3-.1-.3-.4-.3l-3.7,1a1.27,1.27,0,0,1-.6.1A2.49,2.49,0,0,1,126.9,22.4Zm6.9-.3V16c0-.3-.1-.4-.4-.4h-3.6c-.3,0-.4.1-.4.4v6.1c0,.2.1.3.4.3h3.6C133.7,22.4,133.8,22.3,133.8,22.1Z"/></g></g></svg>