<svg xmlns="http://www.w3.org/2000/svg" width="22" height="16" viewBox="0 0 22 16">
    <g fill="none" fill-rule="evenodd">
        <g fill="#333" fill-rule="nonzero">
            <g>
                <g>
                    <g>
                        <path d="M19.84 0c.818 0 1.493.69 1.493 1.527v12.946c0 .836-.675 1.527-1.493 1.527H1.493C.676 16 0 15.31 0 14.473V1.527C0 .691.676 0 1.493 0zm.782 5.455H.712v9.018c0 .436.355.8.781.8H19.84c.427 0 .782-.364.782-.8V5.455zM17.067 9.09c1.386 0 2.489 1.127 2.489 2.545 0 1.419-1.103 2.546-2.49 2.546-.462 0-.888-.11-1.244-.327-.355.218-.782.327-1.244.327-1.387 0-2.49-1.127-2.49-2.546 0-1.418 1.103-2.545 2.49-2.545.462 0 .889.109 1.244.327.356-.218.782-.327 1.245-.327zm0 .727c-.214 0-.427.037-.64.11.39.472.64 1.054.64 1.708 0 .655-.25 1.273-.64 1.71.213.072.426.109.64.109.995 0 1.777-.8 1.777-1.819 0-1.018-.782-1.818-1.777-1.818zm-2.49 0c-.995 0-1.777.8-1.777 1.818 0 1.019.782 1.819 1.778 1.819.213 0 .426-.037.64-.11-.391-.472-.64-1.054-.64-1.709 0-.654.249-1.236.64-1.709-.214-.072-.427-.109-.64-.109zm1.245.51c-.32.327-.533.8-.533 1.308 0 .51.213.982.533 1.31.32-.328.534-.8.534-1.31 0-.509-.214-.981-.534-1.309zM5.69 6.908c.213 0 .355.146.355.364s-.142.363-.355.363h-3.2c-.213 0-.356-.145-.356-.363s.143-.364.356-.364zm4.622 0c.213 0 .356.146.356.364s-.143.363-.356.363h-3.2c-.213 0-.355-.145-.355-.363s.142-.364.355-.364zm10.311-4.364H.712v2.182h19.91V2.545zM19.84.727H1.493c-.426 0-.782.364-.782.8v.291h19.911v-.29c0-.437-.355-.8-.782-.8z" transform="translate(-1981 -320) translate(1920 190) translate(40 106) translate(21 24)"/>
                    </g>
                </g>
            </g>
        </g>
    </g>
</svg>
