<svg xmlns="http://www.w3.org/2000/svg" width="42" height="42" viewBox="0 0 42 42">
    <g fill="none" fill-rule="evenodd">
        <g>
            <g>
                <g>
                    <path fill="#FFF" fill-rule="nonzero" d="M0 0H42V42H0z" opacity=".01" transform="translate(-39 -1466) translate(39 1406) translate(0 60)"/>
                    <path fill="#666" d="M31.423 4.2c1.22 0 2.21.926 2.21 2.067V30.29c0 1.139-.984 2.062-2.2 2.067l3.26 3.3c.42.424.45 1.089.09 1.547l-.09.102-.041.043c-.428.423-1.1.449-1.558.082l-.101-.092-4.924-4.982H13.962L9.04 37.339c-.455.46-1.198.465-1.66.01-.002-.004-.006-.007-.009-.01l-.032-.033c-.452-.457-.452-1.192 0-1.65l3.261-3.3-.116-.004c-1.146-.076-2.051-.97-2.051-2.062V6.267c0-1.141.989-2.067 2.209-2.067h20.781zM27.12 35c.486 0 .88.394.88.88v.06c0 .486-.394.88-.88.88H14.88c-.486 0-.88-.394-.88-.88v-.06c0-.486.394-.88.88-.88h12.24zm1.294-8.509c-.665 0-1.204.549-1.204 1.225 0 .677.539 1.225 1.204 1.225.664 0 1.203-.548 1.203-1.225 0-.676-.539-1.225-1.203-1.225zm-14.685 0c-.665 0-1.204.549-1.204 1.225 0 .677.54 1.225 1.204 1.225.665 0 1.204-.548 1.204-1.225 0-.676-.54-1.225-1.204-1.225zM31.533 8.4h-21v12.087h21V8.4z" transform="translate(-39 -1466) translate(39 1406) translate(0 60)"/>
                </g>
            </g>
        </g>
    </g>
</svg>
