<svg xmlns="http://www.w3.org/2000/svg" viewBox="0 0 22.99 19.03"><defs><style>.cls-1{fill:#333;}</style></defs><title>web_ic_cart</title><g id="레이어_2" data-name="레이어 2"><g id="레이어_1-2" data-name="레이어 1"><path class="cls-1" d="M22,3a1.2,1.2,0,0,0-.37,0h-17A2.24,2.24,0,0,0,4.23,3L3.5.47A.62.62,0,0,0,2.87,0H.67A.67.67,0,0,0,0,.67a.67.67,0,0,0,.67.66h1.7l3,10.47L5.7,13a1.34,1.34,0,0,0,1.26,1H19.29a1.35,1.35,0,0,0,1.3-1l2.34-8.33A1.31,1.31,0,0,0,22,3Zm-2.7,9.59H7v-.1l-.34-1.13-2-7.1h17Z"/><path class="cls-1" d="M18,15.09a2,2,0,0,0-2,2,2,2,0,0,0,2,2,2,2,0,1,0,0-3.94Zm0,2.6a.63.63,0,0,1-.63-.63.61.61,0,0,1,.63-.63.63.63,0,0,1,.64.63A.61.61,0,0,1,18,17.69Z"/><path class="cls-1" d="M8.3,15.09a2,2,0,1,0,2,2A2,2,0,0,0,8.3,15.09Zm0,2.6a.63.63,0,0,1-.64-.63.64.64,0,1,1,.64.63Z"/></g></g></svg>