<svg xmlns="http://www.w3.org/2000/svg" width="30" height="30" viewBox="0 0 30 30">
    <g fill="none" fill-rule="evenodd">
        <g>
            <g>
                <g>
                    <path fill="#FFF" fill-opacity=".01" d="M0 0H30V30H0z" transform="translate(-173.000000, -285.000000) translate(126.000000, 285.000000) translate(47.000000, 0.000000)"/>
                    <path fill="#AAA" fill-rule="nonzero" d="M21.514 6.257V7.77c0 .21.085.378.21.504.102.1.256.175.4.2l.105.01c.21 0 .378-.084.504-.21s.21-.336.21-.504V6.257c.006-.062.006-.12 0-.176l4.666.002c.924 0 1.68.756 1.68 1.68v3.826c0 .798-.503 1.429-1.26 1.639-.84.21-1.429.966-1.429 1.807 0 .883.588 1.597 1.429 1.807.757.21 1.26.883 1.26 1.64v3.824c0 .925-.756 1.681-1.68 1.681h-4.582V22.75c-.041-.42-.336-.757-.756-.757s-.757.336-.757.757v1.235l-19.123.001c-.876 0-1.6-.679-1.675-1.537l-.006-.144v-3.825c0-.798.504-1.429 1.261-1.639.84-.21 1.429-.966 1.429-1.807 0-.883-.588-1.597-1.429-1.807-.757-.21-1.26-.883-1.26-1.64V7.765c0-.925.756-1.681 1.68-1.681l19.144-.002c-.014.056-.02.115-.02.176zm.757 10.211c-.42 0-.757.336-.757.757v1.513c0 .42.337.756.757.756s.757-.336.757-.756v-1.513c-.042-.42-.337-.757-.757-.757zm-10.617-4.706l-.63 1.933H9.005c-.084 0-.168.042-.252.126-.084.126-.042.294.084.336l1.64 1.177-.631 1.934c-.042.084 0 .168.042.252.042.042.084.084.168.084h.042c.042 0 .126 0 .168-.042l1.64-1.177 1.596 1.177c.084.042.168.084.252.042.084 0 .126-.042.168-.126.042-.042.042-.126.042-.21l-.63-1.934 1.64-1.177c.083-.042.083-.126.083-.21-.084-.126-.21-.252-.336-.252h-2.017l-.547-1.933c-.042-.084-.084-.126-.168-.168-.126-.042-.294.042-.336.168zm10.617-.778c-.42 0-.757.336-.757.757v1.513c0 .21.085.378.21.504.102.1.256.175.4.2l.105.01c.21 0 .378-.084.504-.21s.21-.336.21-.504V11.74c.043-.463-.252-.757-.672-.757z" transform="translate(-173.000000, -285.000000) translate(126.000000, 285.000000) translate(47.000000, 0.000000)"/>
                </g>
            </g>
        </g>
    </g>
</svg>
