<svg xmlns="http://www.w3.org/2000/svg" viewBox="0 0 22.99 20.48"><defs><style>.cls-1{fill:#333;}</style></defs><title>web_ic_heart</title><g id="레이어_2" data-name="레이어 2"><g id="레이어_1-2" data-name="레이어 1"><path class="cls-1" d="M21.22,2.11A6.29,6.29,0,0,0,16.55,0h0a6.07,6.07,0,0,0-5,2.67A6.13,6.13,0,0,0,6.47,0h0A6.21,6.21,0,0,0,1.77,2.11,7.31,7.31,0,0,0,0,6.94a8.85,8.85,0,0,0,2.37,5.73A53.17,53.17,0,0,0,8,17.91l3,2.4a.7.7,0,0,0,.48.17,1.06,1.06,0,0,0,.46-.16l3-2.39h0l.63-.56a43.69,43.69,0,0,0,5-4.7A8.78,8.78,0,0,0,23,6.94,7.47,7.47,0,0,0,21.22,2.11ZM6.44,1.52a4.38,4.38,0,0,1,3.8,2.17,5.66,5.66,0,0,1,.49.79.82.82,0,0,0,.7.42.73.73,0,0,0,.7-.42A6.17,6.17,0,0,1,12.45,4c.06-.09.12-.18.17-.27a4.69,4.69,0,0,1,3.87-2.16A4.74,4.74,0,0,1,20,3.12,5.62,5.62,0,0,1,21.4,6.94a7.25,7.25,0,0,1-2,4.72,45.09,45.09,0,0,1-4.78,4.48l-.5.43-2.68,2.12-2.54-2-.06-.05a51.87,51.87,0,0,1-5.32-5,7.25,7.25,0,0,1-2-4.72A5.89,5.89,0,0,1,2.94,3.12,4.66,4.66,0,0,1,6.44,1.52Z"/></g></g></svg>