<svg xmlns="http://www.w3.org/2000/svg" width="30" height="30" viewBox="0 0 30 30">
    <g fill="none" fill-rule="evenodd">
        <path fill="#000" fill-opacity="0" d="M0 0H18.857V18.857H0z" transform="matrix(1 0 0 -1 5.571 24.429)"/>
        <path fill="#333" fill-rule="nonzero" d="M12.429 0c.71 0 1.285.576 1.285 1.286v3.856h3.857c.71 0 1.286.576 1.286 1.287V17.57c0 .71-.575 1.286-1.286 1.286H6.43c-.71 0-1.286-.575-1.286-1.286l-.001-3.857H1.286C.576 13.714 0 13.14 0 12.43V1.286C0 .576.576 0 1.286 0h11.143zm5.142 6.429h-3.857v6l-.006.126.006-.126c0 .114-.015.226-.043.331l-.013.045-.014.045-.027.07c-.024.057-.051.112-.082.164l-.036.057-.017.025-.056.074-.021.025c-.02.022-.039.044-.059.064-.011.012-.023.024-.036.035l-.046.042-.048.039-.052.038c-.02.014-.039.027-.059.039l-.03.019-.076.04-.038.018-.071.03-.046.017c-.023.007-.046.015-.07.021l-.045.012c-.026.006-.052.012-.08.016l-.052.008-.059.007-.034.002-.075.002h-6v3.857H17.57V6.43zM12.43 1.286H1.286v11.143h11.143V1.286z" transform="matrix(1 0 0 -1 5.571 24.429)"/>
    </g>
</svg>
