<svg xmlns="http://www.w3.org/2000/svg" width="24" height="24" viewBox="0 0 24 24">
    <g fill="none">
        <path fill="#333" d="M19.818 19.271l-3.802-3.802c1.117-1.235 1.806-2.851 1.806-4.657 0-3.802-3.09-6.891-6.891-6.891-3.802 0-6.891 3.089-6.891 6.89 0 3.803 3.089 6.892 6.89 6.892 1.664 0 3.209-.594 4.397-1.592l3.825 3.826c.096.095.214.142.333.142.119 0 .238-.047.333-.142.19-.19.19-.476 0-.666zM4.99 10.811c0-3.278 2.661-5.94 5.94-5.94 3.28 0 5.941 2.662 5.941 5.94 0 3.28-2.661 5.941-5.94 5.941-3.28 0-5.94-2.66-5.94-5.94z"/>
    </g>
</svg>
