<?xml version="1.0" encoding="UTF-8"?>
<svg width="6px" height="6px" viewBox="0 0 6 6" version="1.1" xmlns="http://www.w3.org/2000/svg" xmlns:xlink="http://www.w3.org/1999/xlink">
    <!-- Generator: Sketch 63.1 (92452) - https://sketch.com -->
    <title>web_ic_input_close</title>
    <desc>Created with Sketch.</desc>
    <g id="web-문자-인증" stroke="none" stroke-width="1" fill="none" fill-rule="evenodd">
        <g id="200310_web_상품상세_캘린더_옵션선택" transform="translate(-1115.000000, -305.000000)" fill="#FFFFFF" fill-rule="nonzero">
            <g id="Group-2" transform="translate(1112.000000, 302.000000)">
                <path d="M6.39680994,5.79680993 L8.32219129,3.87142857 C8.49361986,3.7 8.49361986,3.44285714 8.32219129,3.27142857 C8.15076272,3.1 7.89361986,3.1 7.72219129,3.27142857 L5.79680993,5.19680993 L4.07345908,3.47345908 C3.90203051,3.30203051 3.64488765,3.30203051 3.47345908,3.47345908 C3.30203051,3.64488765 3.30203051,3.90203051 3.47345908,4.07345908 L5.19680993,5.79680993 L3.27142857,7.72219129 C3.1,7.89361986 3.1,8.15076272 3.27142857,8.32219129 C3.35714287,8.40790559 3.4642857,8.45076271 3.57142856,8.45076271 C3.67857142,8.45076271 3.78571428,8.40790557 3.87142857,8.32219129 L5.79680993,6.39680993 L7.9242218,8.5242218 C8.00993609,8.6099361 8.11707893,8.65279322 8.22422181,8.65279322 C8.33136469,8.65279322 8.43850753,8.60993607 8.5242218,8.5242218 C8.69565037,8.35279323 8.69565037,8.09565037 8.5242218,7.9242218 L6.39680994,5.79680993 Z" id="web_ic_input_close" transform="translate(5.897825, 5.897825) rotate(-90.000000) translate(-5.897825, -5.897825) "></path>
            </g>
        </g>
    </g>
</svg>