<svg xmlns="http://www.w3.org/2000/svg" width="18" height="18" viewBox="0 0 18 18">
    <g fill="none">
        <path fill="#FFF" stroke="#E5E5E5" stroke-width=".889" d="M8 0C3.582 0 0 3.582 0 8s3.582 8 8 8 8-3.582 8-8-3.582-8-8-8z" transform="rotate(90 8 9)"/>
        <path fill="#333" d="M10.344 8.93c-.056.055-.147.055-.202 0l-1.92-1.92-1.92 1.92c-.055.055-.146.055-.201 0l-.606-.607c-.056-.055-.056-.146 0-.202l1.92-1.92.807-.807.808.808 1.92 1.92c.055.055.055.146 0 .201l-.606.606z" transform="rotate(90 8 9)"/>
    </g>
</svg>
