<?xml version="1.0" encoding="UTF-8"?>
<svg width="10px" height="14px" viewBox="0 0 10 14" version="1.1" xmlns="http://www.w3.org/2000/svg" xmlns:xlink="http://www.w3.org/1999/xlink">
    <!-- Generator: Sketch 61.2 (89653) - https://sketch.com -->
    <title>9. Icons / Pin/Pink</title>
    <desc>Created with Sketch.</desc>
    <g id="*PC/Mobile---final" stroke="none" stroke-width="1" fill="none" fill-rule="evenodd">
        <g id="1129_Web_Destinations-City---ë©”ì¸--&gt;-í•„í„°--&gt;-ê²€ìƒ‰ê²°ê³¼ê°€-ì—†ë‹¤" transform="translate(-1516.000000, -246.000000)" fill="#D91C84">
            <g id="ì„œìš¸-ì•¡í‹°ë¹„í‹°" transform="translate(277.000000, 229.000000)">
                <g id="ì§€ë„ì—ì„œ-ë³´ê¸°" transform="translate(1210.000000, 0.000000)">
                    <g id="9.-Icons-/-Pin/Pink" transform="translate(29.000000, 17.000000)">
                        <g id="ðŸ”·-Icon-Color">
                            <path d="M5.25,0.4375 C2.7103125,0.4375 0.65625,2.4915625 0.65625,5.03125 C0.65625,8.4765625 5.25,13.5625 5.25,13.5625 C5.25,13.5625 9.84375,8.4765625 9.84375,5.03125 C9.84375,2.4915625 7.7896875,0.4375 5.25,0.4375 L5.25,0.4375 Z M5.25,6.671875 C4.344375,6.671875 3.609375,5.936875 3.609375,5.03125 C3.609375,4.125625 4.344375,3.390625 5.25,3.390625 C6.155625,3.390625 6.890625,4.125625 6.890625,5.03125 C6.890625,5.936875 6.155625,6.671875 5.25,6.671875 L5.25,6.671875 Z"></path>
                        </g>
                    </g>
                </g>
            </g>
        </g>
    </g>
</svg>